<svg width="100px" height="100px" xmlns="http://www.w3.org/2000/svg" version="1.1" xmlns:xlink="http://www.w3.org/1999/xlink">
    <style>.st0,.st1{fill:none;stroke:#000;stroke-width:6;stroke-miterlimit:10}.st1{stroke-linecap:round}</style>
    <circle class="st0" cx="50" cy="50" r="43.2"/>
    <path fill="#e774f2" transform="matrix(-1,0.2,0.2,1,177,-18.6)" d="M 102.1 42.5 l -0.1 2.8 l -5.6 0.3 l 5.5 2.8 l 4.7 -3.5 l 7.4 0.3 l -5.5 -4.7 z M 163 55.2 l -6.7 -11.6 l -5.2 0.3 L 144.5 28.9 l 13.1 0.3 l 0.9 -3 l -9.6 -4.4 L 154.2 8.1 L 146.1 20.4 l -3.2 -1.5 l 0.9 -3.2 l -6.8 10.1 L 134.3 41.2 l -20.2 4.1 L 117.8 74 l 3.2 -9.7 L 128.3 74 l -5.5 -16.2 l 9.2 -5.1 l 9.8 -0.7 l 14.8 22 l -8.9 -22.5 l 6.5 -4.7 z"/>

    <path class="st1" d="M 50.6 49.9 V 19.1 M 50.6 50 l 15.4 -18.7"/>

</svg>
