<svg width="400px" height="400px" xmlns="http://www.w3.org/2000/svg" version="1.1" xmlns:xlink="http://www.w3.org/1999/xlink">
    <style>.st0,.st1{fill:none;stroke:#000;stroke-width:6;stroke-miterlimit:10}.st1{stroke-linecap:round}</style>
    <circle class="st0" cx="50" cy="50" r="43.2"/>
    <path fill="#e774f2" transform="matrix(-1,0.2,0.2,1,177,-18.6)" d="M 103.9 40.4 l -0.1 3.1 l -6.1 0.3 l 5.9 3.1 l 5.1 -3.8 l 8 0.3 l -5.9 -5.2 z M 169.8 54.3 l -7.3 -12.8 l -5.6 0.3 L 149.8 25.4 l 14.2 0.3 l 1 -3.3 l -10.4 -4.8 L 160.3 2.5 L 151.5 16 l -3.5 -1.7 l 1 -3.5 l -7.4 11.1 L 138.7 38.9 l -21.8 4.5 L 120.9 75 l 3.5 -10.7 L 132.2 75 l -5.9 -17.8 l 9.9 -5.6 l 10.6 -0.8 l 16 24.2 l -9.6 -24.7 l 7 -5.2 z"/>

    <path class="st1" d="M 50 49.9 V 19.1 M 50 50 l 21.1 -12.2"/>

</svg>
